<?xml version="1.0" encoding="UTF-8"?>
<svg id="Layer_2" data-name="Layer 2" xmlns="http://www.w3.org/2000/svg" xmlns:xlink="http://www.w3.org/1999/xlink" viewBox="0 0 1504.76 1805.29">
  <defs>
    <style>
      .cls-1 {
        fill: url(#linear-gradient-2);
      }

      .cls-2 {
        fill: #0b705a;
      }

      .cls-3 {
        fill: #9fdbcb;
        opacity: .74;
      }

      .cls-4 {
        fill: url(#linear-gradient);
      }
    </style>
    <linearGradient id="linear-gradient" x1="0" y1="902" x2="1490.76" y2="902" gradientUnits="userSpaceOnUse">
      <stop offset="0" stop-color="#239d96"/>
      <stop offset="1" stop-color="#25b481"/>
    </linearGradient>
    <linearGradient id="linear-gradient-2" x1="5.44" y1="1729.8" x2="772.93" y2="741.71" gradientUnits="userSpaceOnUse">
      <stop offset="0" stop-color="#0d725b"/>
      <stop offset="1" stop-color="#23ac8a"/>
    </linearGradient>
  </defs>
  <g id="Layer_1-2" data-name="Layer 1">
    <path class="cls-3" d="m809.69,888.48l-221.54,92.04,82.52-94.21,123.7-84.64s230.3-78.32,231.83-79.5,82.21-28.76,82.21-28.76l-3.57,55.66"/>
    <path class="cls-2" d="m1222.84,1465.93c89.31-1.8,176.75,15.32,261.33,42.88q1.28.42,2.59.84c5.05,1.66,10.03,3.45,15,5.35-4.36,1.34-7.69.24-11.95-1-1.65-.45-3.3-.91-4.94-1.37-.88-.25-1.75-.49-2.64-.74-56.12-15.79-113.31-25.88-171.47-29.89-.68-.05-1.35-.1-2.05-.15-17.1-1.23-34.25-1.06-51.39-1.04h-2.4c-23.44.02-46.8.05-70.16,2.19-.83.07-1.65.14-2.5.22-85.5,7.59-169.07,28.23-299.27,78.36-3.1,1.36-6.21,2.71-9.33,4.05-26.41,11.44-52.32,24.02-78.22,36.58-3.22,1.56-6.44,3.11-9.67,4.66l-8.16,3.93c-1.28.61-2.55,1.22-3.83,1.83-7.33,3.51-14.57,7.15-21.75,10.96-12.37,6.56-24.88,12.83-37.4,19.09-.61.31-1.23.62-1.86.94-17.86,8.93-35.76,17.68-54.03,25.73-5.16,2.27-10.29,4.6-15.42,6.94-51.14,23.33-103.33,43.66-156.56,61.71-.78.26-1.57.53-2.38.81-39.55,13.46-79.93,24.7-120.62,34.19-.91.21-1.82.42-2.75.64-56.94,13.23-114.75,23.46-173.06,28.18-2.24.18-4.48.37-6.73.55-28.75,2.37-57.32,3.05-86.17,2.89-4.29-.02-8.58-.02-12.87-.03-5.2,0-10.4-.02-15.6-.03-.96,0-1.92,0-2.91,0-10.68-.02-21.26-.23-31.91-1.19,1.87-4,4.48-7.08,7.37-10.38.97-1.11,1.94-2.22,2.9-3.33.54-.6,1.08-1.19,1.64-1.81,1.63-1.94,3.04-3.84,4.47-5.92q7.49-10.45,13.54-11.78c4.5-.54,8.97-.31,13.49-.08,1.69.03,3.38.06,5.07.07,4.44.07,8.89.21,13.33.38,7,.25,14,.36,20.99.5,2.61.05,5.21.11,7.81.17,15.97.35,31.8-.42,47.72-1.56,3.14-.23,6.27-.43,9.41-.63,4.36-.28,8.72-.6,13.07-.95q1.15-.09,2.32-.18c52.03-4.22,104-12.92,154.87-24.5.95-.22,1.9-.43,2.88-.66,45.59-10.32,90.73-22.67,135.12-37.34.79-.26,1.57-.52,2.38-.79,35.07-11.6,69.56-24.47,103.64-38.72,4.39-1.84,8.8-3.65,13.21-5.44,44.17-17.99,87.09-38.75,129.91-59.7,79.02-38.65,159.77-74.77,333.86-120.35q1.09-.21,2.19-.42c49.53-9.43,99.54-13.56,149.89-14.65Z"/>
    <path class="cls-3" d="m917.51,646.75l107.43-91.54,157.52-68.6,134.81-62.81s5.11,33.7,5.11,35.23"/>
    <path class="cls-2" d="m1501.76,1516l3,1-3-1Z"/>
    <path class="cls-3" d="m332.02,1329.77l64.37-98.88-72.77,112.29,241.47-106.83c88.34-54.26,176.68-108.51,265.02-162.77-116.81,42.51-233.62,85.02-350.43,127.53l-76.19,19.66"/>
    <path class="cls-3" d="m328.44,1200.84l91.71-77.23-104.19,87.38c24.78-83.18,49.56-166.36,74.34-249.55,42.69-93.6,85.39-187.2,128.08-280.81-26.6,119.32-53.21,238.64-79.81,357.96-3.04,25.53-6.08,51.07-9.11,76.6"/>
    <path class="cls-3" d="m798.55,724.93l102.63-89,150.3-260.89s-14.17-34.47-18.38-33.7c-4.21.77-101.11,70.47-101.11,70.47"/>
    <path class="cls-3" d="m332.02,1329.77l64.37-98.88-72.77,112.29,241.47-106.83c88.34-54.26,176.68-108.51,265.02-162.77-116.81,42.51-233.62,85.02-350.43,127.53l-76.19,19.66"/>
    <path class="cls-4" d="m1488.76,0h2c-7.02,63.04-16.95,126.12-31,188-.17.77-.35,1.55-.53,2.35-19.65,87.12-45.08,174.46-82.59,255.73-1.33,2.91-2.66,5.82-3.98,8.74-13,28.57-26.53,56.79-41.9,84.18-.49.88-.98,1.76-1.49,2.67-6.65,11.9-13.65,23.52-21.01,34.99-1.51,2.35-2.99,4.71-4.46,7.08-7.05,11.3-14.43,22.33-22.04,33.26-.49.71-.98,1.42-1.48,2.15-21.41,30.97-44.99,61.25-70.69,88.81-2.44,2.61-4.83,5.25-7.21,7.92-10.5,11.69-21.35,23.02-32.48,34.11-2.04,2.03-4.07,4.07-6.1,6.11-1.32,1.32-2.65,2.64-3.97,3.96-.59.6-1.19,1.19-1.8,1.81-3.69,3.67-7.51,7.15-11.45,10.55-2.78,2.41-5.45,4.94-8.13,7.46-4.81,4.47-9.75,8.72-14.87,12.84-3.17,2.57-6.28,5.2-9.38,7.84-6.46,5.48-13.03,10.79-19.71,15.99-7.5,5.84-14.84,11.82-22.05,18.01-1.78,1.52-3.57,3.04-5.36,4.55q-8.07,6.84-15.64,14.21c-1.68,1.68-3.43,3.22-5.25,4.76-5.05,4.4-9.77,9.11-14.49,13.86-.86.85-1.72,1.71-2.61,2.59-4.98,4.99-9.75,10.1-14.33,15.47-1.05,1.19-2.09,2.38-3.14,3.57-15.57,17.75-30.1,36.55-42.86,56.43-.89,1.35-1.77,2.69-2.66,4.04-6.57,10.1-12.41,20.48-18.05,31.12-5.29,9.93-10.93,19.61-16.73,29.25-1.53,2.54-3.04,5.08-4.55,7.63-10.21,17.2-20.43,34.37-33.01,49.96-.88,1.13-1.76,2.27-2.64,3.4-16.48,21.33-34.69,42.23-55.36,59.6q-1.43,1.26-2.89,2.55c-20.26,17.84-42.66,34.06-66.11,47.45-.6.35-1.2.7-1.82,1.05-40.01,23.16-82.06,39.56-126.18,52.95,4.96,4.96,22.19,2.24,29.25,2.25h2.25c34.69-.05,69.23-7.71,101.16-21.26q5.04-2.09,8.34-.99c-.71.77-1.43,1.55-2.16,2.34-.97,1.06-1.94,2.11-2.9,3.16-.51.55-1.01,1.1-1.53,1.67-2.73,2.97-5.41,5.96-8.03,9.02-5.6,6.43-11.69,12.33-18.16,17.87-2.2,1.93-4.35,3.9-6.5,5.89-6.04,5.61-12.28,10.9-18.72,16.05-1.12.91-2.24,1.82-3.36,2.73-64.81,52.69-139.98,91.81-437.47,166.44-.8.08-1.61.17-2.44.26-4.93.49-9.77.65-14.73.57,4.12-8.55,8.67-16.74,13.56-24.88.71-1.18,1.42-2.37,2.13-3.56,1.43-2.39,2.86-4.78,4.29-7.17,2.35-3.95,4.69-7.9,7.02-11.86,11.82-20.08,23.82-40.03,36.25-59.74,1.67-2.67,3.34-5.35,5.01-8.02,2.43-3.91,4.9-7.81,7.39-11.68.88-1.35,1.75-2.72,2.61-4.08,5.78-9.07,12.14-15.4,20.87-21.65,1.87-1.36,3.69-2.76,5.51-4.18,54.6-42.38,118.89-63.76,184.88-80.87,61.68-16,121.74-36.42,174.48-73.31.64-.44,1.27-.88,1.93-1.34,16.38-11.36,32.18-23.39,47.07-36.66-4.92,3.17-9.67,6.49-14.31,10.06-14.41,10.88-29.96,20.12-45.69,28.94q-1.28.72-2.58,1.46c-19,10.74-38.54,19.78-58.86,27.73-1.17.46-2.35.92-3.56,1.4-21.74,8.35-44.05,14.43-66.64,19.97-2.72.67-5.44,1.34-8.16,2.02-26.03,6.51-44.37,10.64-45.89,10.99-14.09,3.29-52.63,17.6-154.22,62.48,4.04-6.74,5.54-9.22,5.91-9.8.03-.04.29-.46.66-1.04.17-.26.33-.52.66-1.05,6.58-10.27,13.66-20.2,20.68-30.16,1.08-1.54,2.16-3.08,3.24-4.62,6.15-8.76,12.4-17.44,18.67-26.11,2.71-3.75,5.41-7.5,8.09-11.27,17.62-24.71,35.65-49.09,54.07-73.21,4.09-5.36,8.15-10.75,12.18-16.17,4.35-5.82,8.83-11.53,13.39-17.19,3.16-3.91,6.25-7.87,9.3-11.87,5.39-7.04,10.99-13.9,16.61-20.77,1.91-2.36,3.81-4.73,5.7-7.1,6.43-8.06,12.98-16,19.66-23.85,2.95-3.47,5.85-6.98,8.71-10.53,3.58-4.39,7.32-8.6,11.14-12.79,2.29-2.57,23.76-27.23,25.74-29.52,2.91-3.34,5.85-6.65,8.81-9.94.84-.93,1.69-1.87,2.55-2.84,7.92-8.32,16.74-14.97,26.33-21.22,1.21-.8,2.42-1.6,3.64-2.4,14.74-9.67,29.8-18.21,45.51-26.24,2.27-1.16,4.52-2.33,6.78-3.52,46.13-23.98,97.14-36.56,147.68-47.37,88.69-18.99,172.6-46.68,255.2-113.47-.45.33-.89.66-1.35,1-45.46,33.62-96.56,57.92-150.65,74-1.24.37-2.47.74-3.74,1.12-35.29,10.45-71.54,17.34-107.7,24-55.97,10.34-111.29,26.33-161.8,53.07-1.89.99-3.82,1.91-5.76,2.81-3.85,2.48-5.88,3.58-6.09,3.31-.19-.26,1.17-1.69,4.09-4.31,3.66-4,7.33-8,11-12,.48-.52.95-1.04,1.44-1.57q23.52-25.62,35.81-37.62c1.98-2.02,16.84-18.04,22.62-23.81l3.75-3.75c2.6-2.61,5.21-5.22,7.82-7.82,3.33-3.32,6.65-6.65,9.97-9.97,2.57-2.58,5.15-5.16,7.73-7.73,1.22-1.23,2.45-2.45,3.67-3.68q11.55-11.56,17.57-16.65c2.86-2.47,5.48-5.2,8.12-7.9,4.11-4.17,8.28-8.17,12.74-11.96,2.45-2.15,4.7-4.47,6.98-6.79,2.5-2.46,5.16-4.71,7.81-7,1.9-1.69,3.69-3.44,5.47-5.25,2.92-2.97,5.99-5.71,9.14-8.43,2.96-2.6,5.85-5.27,8.74-7.95,4.71-4.36,9.45-8.7,14.24-12.99,1.58-1.41,3.16-2.84,4.73-4.26,6.49-5.89,13.12-11.58,19.78-17.27,7.99-6.83,15.94-13.68,23.62-20.85,4.67-4.36,9.47-8.48,14.45-12.48,2.53-2.05,5.01-4.14,7.48-6.25,19.39-16.57,39.66-30.25,62.32-42.02,1.01-.53,2.02-1.05,3.06-1.6,32.46-16.83,65.9-29.37,100.76-40.12,57.93-17.88,112.96-39.52,161.18-77.28q.9-.7,1.81-1.42c9.5-7.47,18.47-15.37,27.22-23.7,3.61-3.44,7.26-6.85,10.91-10.26,1.36-1.27,2.72-2.55,4.09-3.83.57-.54,1.15-1.08,1.74-1.64.41-.38.81-.76,1.23-1.15-3.22,2.53-6.27,5.14-9.25,7.94-7.2,6.51-14.97,12.26-22.75,18.06-.72.54-1.45,1.08-2.19,1.64-7.91,5.99-78.35,53.36-175.36,79.12-7.06,1.88-21.44,5.54-41.24,11.97-18.19,5.91-32.8,11.5-42.21,15.27,5.02-4.6,10.07-9.11,15.38-13.38,4.55-3.68,8.86-7.55,13.14-11.54,3.19-2.95,6.46-5.74,9.86-8.46,5.73-4.61,11.06-9.6,16.42-14.63,2.34-2.19,4.7-4.34,7.14-6.43,5.85-5.05,11.43-10.41,17.06-15.69,1.95-1.82,3.9-3.63,5.85-5.43,6.67-6.18,13.24-12.41,19.59-18.91,2.53-2.58,5.1-5.01,7.86-7.33,6.65-5.8,12.79-12.14,19.02-18.38,1.38-1.39,2.76-2.77,4.15-4.15,2.89-2.89,5.78-5.78,8.67-8.68,3.68-3.68,7.37-7.37,11.06-11.05,2.85-2.86,5.71-5.71,8.56-8.57,1.36-1.36,2.72-2.71,4.08-4.07q9.21-9.16,17.89-18.81c1.81-2.12,3.77-4.05,5.77-5.99,3.45-3.4,6.67-6.92,9.82-10.6,1.66-1.88,3.39-3.64,5.18-5.4,2.29-2.26,4.46-4.56,6.56-7,3.54-4.11,7.23-8.05,10.94-12,4.2-4.48,8.37-8.97,12.37-13.62,1.97-2.27,3.99-4.48,6.01-6.69,3.85-4.27,7.49-8.67,11.1-13.14,2.95-3.57,5.98-7.06,9.02-10.55,5.29-6.07,10.44-12.24,15.5-18.5,1.42-1.73,2.83-3.46,4.25-5.19,1.58-1.93,3.17-3.87,4.75-5.81.5-.61.99-1.21,1.5-1.83,6.4-7.82,12.72-15.67,18.85-23.71,2.55-3.34,5.13-6.65,7.72-9.96,9.9-12.68,19.55-25.52,28.94-38.59,3.32-4.62,6.68-9.2,10.07-13.77,15.29-20.59,29.56-41.9,43.92-63.14-2.33,2.89-4.61,5.78-6.78,8.79-.5.71-1.01,1.41-1.53,2.13-.54.75-1.07,1.5-1.63,2.27-.57.79-1.14,1.58-1.73,2.4-2.84,3.94-5.68,7.9-8.51,11.86-7.15,9.97-14.5,19.77-21.97,29.51-2.89,3.77-5.74,7.57-8.58,11.39-5,6.73-10.16,13.3-15.48,19.79-3.52,4.28-6.96,8.61-10.35,12.98-4.22,5.42-8.61,10.66-13.1,15.84-2.99,3.45-5.91,6.93-8.78,10.48-7.89,9.71-16.18,19.1-24.59,28.37-1.82,2.03-3.62,4.07-5.41,6.13-3.65,4.2-7.41,8.3-11.16,12.41-1.95,2.16-3.87,4.33-5.78,6.53-5.07,5.83-10.36,11.46-15.62,17.12-.55.59-1.09,1.17-1.65,1.78-3.46,3.71-6.92,7.42-10.39,11.13-1.27,1.35-2.53,2.7-3.8,4.06-9.71,10.4-19.59,20.61-29.66,30.66-1.42,1.42-2.83,2.84-4.25,4.25-2.93,2.93-5.86,5.86-8.79,8.79-3.74,3.73-7.47,7.47-11.21,11.21-2.9,2.91-5.81,5.82-8.72,8.73-1.38,1.37-2.76,2.75-4.14,4.13q-12.91,12.93-18.93,18.02c-1.93,1.64-3.7,3.42-5.46,5.24-2.47,2.56-5.04,4.93-7.73,7.26-4.32,3.76-8.49,7.67-12.65,11.62-6.13,5.79-12.32,11.51-18.62,17.12-1.58,1.44-3.17,2.87-4.75,4.31-4.62,4.17-9.34,8.21-14.07,12.24-3.51,2.99-6.96,6.03-10.37,9.14-3.33,3.03-6.74,5.92-10.25,8.75-3.8,3.07-7.46,6.25-11.06,9.56-4.37,4.02-8.87,7.79-13.48,11.52-3.57,2.93-7.04,5.95-10.52,8.98-5.18,4.51-10.42,8.93-15.76,13.26-3.11,2.54-6.18,5.14-9.24,7.74-6.65,5.65-13.4,11.17-20.17,16.67-4.38,3.57-8.72,7.16-13.02,10.82-5.52,4.71-11.14,9.28-16.87,13.74-4.53,3.53-8.99,7.14-13.44,10.77-5.02,4.1-10.07,8.14-15.19,12.12-5.08,3.97-10.02,8.07-14.92,12.26-3.86,3.29-7.82,6.45-11.83,9.56-5.48,4.25-10.78,8.68-16.02,13.22-4.32,3.74-8.73,7.37-13.17,10.97-2.2,1.82-4.37,3.65-6.52,5.52-.63.55-1.26,1.09-1.9,1.65-1.23,1.07-2.46,2.14-3.68,3.22-2.78,2.41-5.34,4.57-8.77,5.98,1.25-2.65,2.5-5.29,3.75-7.94.4-.84.8-1.68,1.21-2.55,2.31-4.88,4.63-9.75,6.99-14.6,5.94-12.22,11.63-24.49,16.85-37.04,1.3-3.12,2.63-6.22,3.97-9.32,5.73-13.47,10.9-27.02,15.67-40.86,11.27-32.7,24.42-64.59,41.56-94.69q.6-1.06,1.21-2.14c10.32-18.1,22.89-34.97,36.48-50.74.52-.6,1.04-1.21,1.58-1.83,3.23-3.7,6.59-7.21,10.11-10.64,1.7-1.73,3.26-3.54,4.81-5.4,7.25-8.4,15.91-15.66,24.81-22.25-21.29,12.95-41.03,31.96-57,51-.71.82-1.42,1.64-2.15,2.49-7.79,9.12-14.87,18.76-21.85,28.51q-.68.95-1.38,1.92c-24.75,34.83-40.22,75.85-55.93,115.33-2.23,5.58-4.46,11.17-6.69,16.75-.39.97-.78,1.94-1.18,2.95-5.19,12.84-11.22,25.28-17.26,37.74-.39.82-.79,1.64-1.2,2.49-7.91,16.34-16.23,32.33-26.61,47.26-.73,1.05-1.45,2.1-2.2,3.19-16.47,23.81-33.74,45.81-55.77,64.8-2.37,2.09-4.58,4.31-6.78,6.57-2.83,2.91-5.74,5.66-8.81,8.31-4.27,3.7-8.24,7.66-12.19,11.69-1.33,1.36-2.66,2.71-4,4.06-.58.59-1.15,1.18-1.75,1.79-1.88,1.79-3.79,3.47-5.76,5.16-5.73,4.99-11.04,10.39-16.4,15.77-1.14,1.13-2.28,2.27-3.41,3.41-2.38,2.37-4.75,4.74-7.12,7.12-3.01,3.02-6.04,6.04-9.06,9.06-2.35,2.34-4.69,4.68-7.03,7.03-1.12,1.11-2.23,2.23-3.34,3.34-5.41,5.4-10.77,10.79-15.71,16.62-2.33,2.69-4.87,5.16-7.42,7.64-3.82,3.77-7.48,7.59-10.96,11.68-2.94,3.34-5.99,6.57-9.04,9.82-4.16,4.44-8.28,8.89-12.25,13.5-5.64,6.45-11.53,12.68-17.34,18.97-8.09,8.74-16.04,17.57-23.75,26.64-3.52,4.12-7.15,8.12-10.85,12.08-4.41,4.72-8.55,9.59-12.6,14.63-2.32,2.81-4.74,5.5-7.21,8.18-4.06,4.42-7.89,8.96-11.66,13.63-2.53,3.1-5.12,6.14-7.72,9.18-4.22,4.96-8.28,10.03-12.28,15.18-3.7,4.74-7.5,9.38-11.34,14.01-4.73,5.72-9.39,11.48-13.96,17.33-3.31,4.25-6.67,8.47-10.04,12.67-5.26,6.56-10.47,13.16-15.65,19.78-1.34,1.71-2.68,3.41-4.03,5.11-6.59,8.36-13.08,16.79-19.53,25.26-1.89,2.48-3.78,4.95-5.68,7.43-8.24,10.78-16.37,21.63-24.38,32.57-1.76,2.39-3.53,4.78-5.29,7.16-7.12,9.62-14.12,19.31-20.98,29.11-1.94,2.77-3.9,5.53-5.85,8.3-6.01,8.49-11.99,17-17.94,25.53-2.43,3.48-4.86,6.94-7.31,10.4-11.24,15.97-21.93,32.29-32.61,48.64-2.52,3.86-5.05,7.71-7.58,11.57-8.19,12.46-16.26,24.99-24.17,37.64-1.2,1.92-2.41,3.84-3.61,5.77-3.19,5.09-6.37,10.18-9.55,15.28-1.19,1.91-2.38,3.81-3.56,5.71-7.68,12.28-15.15,24.67-22.47,37.16-1.61,2.74-3.22,5.48-4.83,8.21-4.67,7.95-9.33,15.91-13.98,23.87-.65,1.11-1.3,2.22-1.96,3.36-13.83,23.72-27.12,47.69-39.71,72.09-1.24,2.38-2.5,4.74-3.76,7.1-26.14,48.73-46.21,99.93-63.22,152.47-.66,2.02-1.32,4.04-1.98,6.06q-.58,1.78-1.18,3.6c-5.78,16.08-16.52,24.68-30.18,33.95-12.05,8.22-23.13,17.39-33.76,27.35-2.05,1.91-4.12,3.8-6.21,5.67-7.92,7.07-15.16,14.68-22.34,22.5-1.48,1.62-2.98,3.22-4.49,4.83-6.52,7.01-12.39,14.43-18.21,22.02-1.11,1.44-2.23,2.88-3.34,4.32-5.74,7.44-11.4,14.89-16.66,22.68q-1-2-.04-4.96c.51-1.29,1.03-2.57,1.56-3.85q.42-1.06.85-2.13c.95-2.36,1.91-4.71,2.88-7.06.33-.82.67-1.63,1.01-2.47,13.61-33.3,29.04-65.81,44.63-98.22,1.06-2.22,2.13-4.43,3.19-6.65,9.11-18.97,18.46-37.83,27.86-56.66.52-1.06,1.05-2.11,1.59-3.2,6.3-12.61,12.69-25.16,19.31-37.61,1.51-2.85,3.02-5.71,4.52-8.56,11.7-22.18,23.44-44.33,35.83-66.12,3.7-6.51,7.31-13.06,10.87-19.63,5.3-9.76,10.75-19.41,16.3-29.03,1.77-3.08,3.54-6.16,5.31-9.24.63-1.1,1.26-2.2,1.91-3.33,1.27-2.22,2.55-4.44,3.82-6.66,2.98-5.19,6-10.31,9.26-15.33.56-.89,1.13-1.77,1.71-2.69,1.05-1.63,2.12-3.25,3.21-4.84,3.95-6.19,3.77-10.68,2.42-17.76q-.3-1.62-.6-3.26c-.7-3.65-1.46-7.29-2.21-10.93-3.26-16.18-5.47-32.39-7.19-48.81-.12-1.08-.24-2.16-.36-3.27-9.72-91.92,6.82-188.4,60.77-316.53,1.46-2.94,2.9-5.88,4.34-8.82,11.99-24.42,25.61-48.23,41.05-70.63,1.27-1.85,2.54-3.72,3.8-5.58,13.27-19.52,27.45-38.15,42.36-56.44,3.71-4.55,7.38-9.13,11.04-13.73,1.41,2.83.57,4.24-.26,7.27-.29,1.1-.59,2.2-.89,3.34-.32,1.2-.64,2.4-.97,3.64-2.73,10.5-4.99,20.98-6.76,31.69-.2,1.21-.4,2.42-.61,3.67-5.1,31.92-1.85,62.91,4.49,94.39.39,1.93.77,3.86,1.16,5.79.28,1.41.56,2.81.84,4.21.08-.78.16-1.56.24-2.36,9.73-93.03,40.79-180.51,117.94-294.29,1.61-2.08,3.22-4.17,4.82-6.26,5.22-6.76,10.68-13.28,16.31-19.7,3.09-3.53,6.09-7.09,9-10.77,10.95-13.41,23.47-25.5,35.69-37.74.63-.64,1.26-1.27,1.91-1.93q12.18-12.21,18.36-17.47c3-2.57,5.85-5.28,8.73-7.98,4.93-4.59,9.88-9.13,15-13.5.95-.82,1.9-1.63,2.88-2.48,6.18-5.29,12.46-10.4,18.89-15.39,3.99-3.12,7.88-6.34,11.73-9.63,5.52-4.72,11.18-9.23,16.91-13.69,3.06-2.38,6.08-4.81,9.1-7.24,8.34-6.73,16.86-13.2,25.49-19.57.75-.56,1.51-1.12,2.28-1.69,8.61-6.39,17.04-12.64,26.72-17.31-1.68,4.37-3.63,8.58-5.62,12.81-.36.75-.71,1.51-1.08,2.28-2.01,4.25-4.07,8.46-6.21,12.65-17.95,35.19-34.09,79.2-34.09,119.26.28-.66.56-1.31.85-1.99,12.58-29.29,27.21-57.01,44.15-84.01l3.69-5.97c10.81-17.38,22.89-33.57,35.92-49.34,1.91-2.33,3.78-4.7,5.64-7.07,3.38-4.23,6.95-8.25,10.6-12.25,1.91-2.1,3.79-4.23,5.65-6.37,1.17-1.33,2.33-2.67,3.5-4,.58-.67,1.16-1.34,1.76-2.03,6.62-7.48,13.65-14.53,20.72-21.58,2.09-2.08,4.16-4.16,6.24-6.24,1.34-1.35,2.69-2.69,4.03-4.04.61-.61,1.22-1.22,1.85-1.85,4.3-4.28,8.79-8.3,13.4-12.26,1.08-.94,2.16-1.88,3.25-2.82,13.27-11.44,26.72-22.68,40.75-33.18.69-.51,1.38-1.03,2.08-1.56,49.1-36.68,102.32-66.94,157.98-92.5,29.85-13.71,59.18-28.52,88.56-43.19,1.14-.57,2.27-1.13,3.44-1.71,13.73-6.86,27.4-13.81,40.94-21.04,1.07-.57,2.15-1.15,3.25-1.74,2.71-1.45,5.42-2.92,8.13-4.38.98-.54,1.97-1.08,2.98-1.63,3.22-1.74,6.43-3.5,9.64-5.25,1.15-.63,2.3-1.25,3.48-1.9,32.43-17.73,64.25-36.38,95.52-56.1.98-.62,1.96-1.23,2.97-1.87,10.66-6.73,21.26-13.54,31.72-20.58,2.84-1.9,5.68-3.79,8.53-5.67,25.46-16.89,50.44-34.41,74.78-52.88.56-.42,1.12-.85,1.7-1.28,12.2-9.25,24.08-18.91,35.72-28.85,3.25-2.77,6.55-5.46,9.89-8.12,5.53-4.49,10.7-9.35,15.86-14.26,3.15-3,6.33-5.94,9.63-8.76,3.5-3.04,6.82-6.26,10.07-9.55,3.25-3.28,5.49-5.59,6.49-6.64,3.84-4.02,9.93-9.83,19.64-17.54ZM487.76,799c-8.31,10.95-15.88,22.24-23,34-.49.8-.97,1.6-1.47,2.43-14.03,23.34-25.42,47.92-34.53,73.57-.42,1.18-.85,2.35-1.28,3.56-6.61,18.54-11.7,37.16-15.72,56.44-.14.66-.28,1.33-.42,2.01-3.02,14.47-5.84,28.97-8.55,43.49-9.48,50.62-21.25,101.28-41.97,148.64-1.98,4.53-3.59,9.14-5.06,13.86,4.15-3.93,7.57-8.18,11-12.75,1.15-1.52,2.29-3.03,3.44-4.55.59-.77,1.17-1.55,1.78-2.35,1.75-2.32,3.53-4.62,5.31-6.93.57-.74,1.14-1.48,1.73-2.25,1.08-1.4,2.16-2.8,3.25-4.2,1.52-1.97,3.01-3.97,4.49-5.97.52-.65,1.03-1.31,1.56-1.98,4.9-6.63,6.73-13.81,8.69-21.71.38-1.48.76-2.97,1.14-4.46,8.5-33.65,15.04-67.61,20.63-101.85,1.52-9.34,3.09-18.66,4.66-27.99.49-2.89.97-5.78,1.44-8.67,3.1-18.51,6.83-36.85,12.19-54.84q.29-.97.58-1.96c6.04-20.46,13.21-40.15,22.11-59.54.46-1.01.93-2.03,1.41-3.07,8.06-17.48,16.63-35.05,27.59-50.93-.33-.66-.66-1.32-1-2Z"/>
    <path class="cls-1" d="m793.3,727.48c3.17-2.27,5.85-4.08,7.73-5.31-1.76,1.98-4.57,5.09-8.15,8.8-3.86,4-7.74,7.68-15.48,15.04-6.47,6.15-8.44,7.98-9.95,9.37-3.64,3.36-3.13,3.01-6.5,5.93-4.27,3.7-8.24,7.66-12.19,11.69-1.33,1.36-2.66,2.71-4,4.06q-.87.89-1.75,1.79c-1.88,1.79-3.79,3.47-5.76,5.16-5.73,4.99-11.04,10.39-16.4,15.77-1.14,1.13-2.28,2.27-3.41,3.41-2.38,2.37-4.75,4.74-7.12,7.12-3.01,3.02-6.04,6.04-9.06,9.06-2.35,2.34-4.69,4.68-7.03,7.03-1.12,1.11-2.23,2.23-3.34,3.34-5.41,5.4-10.77,10.79-15.71,16.62-2.33,2.69-4.87,5.16-7.42,7.64-3.82,3.77-7.48,7.59-10.96,11.68-2.94,3.34-5.99,6.57-9.04,9.82-4.16,4.44-8.28,8.89-12.25,13.5-5.64,6.45-11.53,12.68-17.34,18.97-8.09,8.74-16.04,17.57-23.75,26.64-3.52,4.12-7.15,8.12-10.85,12.08-4.41,4.72-8.55,9.59-12.6,14.63-2.32,2.81-4.74,5.5-7.21,8.18-4.06,4.42-7.89,8.96-11.66,13.63-2.53,3.1-5.12,6.14-7.72,9.18-4.22,4.96-8.28,10.03-12.28,15.18-3.7,4.74-7.5,9.38-11.34,14.01-4.73,5.72-9.39,11.48-13.96,17.33-3.31,4.25-6.67,8.47-10.04,12.67-5.26,6.56-10.47,13.16-15.65,19.78-1.34,1.71-2.68,3.41-4.03,5.11-6.59,8.36-13.08,16.79-19.53,25.26-1.89,2.48-3.78,4.95-5.68,7.43-8.24,10.78-16.37,21.63-24.38,32.57-1.76,2.39-3.53,4.78-5.29,7.16-7.12,9.62-14.12,19.31-20.98,29.11-1.94,2.77-3.9,5.53-5.85,8.3-6.01,8.49-11.99,17-17.94,25.53-2.43,3.48-4.86,6.94-7.31,10.4-11.24,15.97-21.93,32.29-32.61,48.64-2.52,3.86-5.05,7.71-7.58,11.57-8.19,12.46-16.26,24.99-24.17,37.64-1.2,1.92-2.41,3.84-3.61,5.77-3.19,5.09-6.37,10.18-9.55,15.28-1.19,1.91-2.38,3.81-3.56,5.71-7.68,12.28-15.15,24.67-22.47,37.16-1.61,2.74-3.22,5.48-4.83,8.21-4.67,7.95-9.33,15.91-13.98,23.87-.65,1.11-1.3,2.22-1.96,3.36-13.83,23.72-27.12,47.69-39.71,72.09-1.24,2.38-2.5,4.74-3.76,7.1-26.14,48.73-46.21,99.93-63.22,152.47-.66,2.02-1.32,4.04-1.98,6.06-.39,1.19-.78,2.37-1.18,3.6-5.78,16.08-16.52,24.68-30.18,33.95-12.05,8.22-23.13,17.39-33.76,27.35-2.05,1.91-4.12,3.8-6.21,5.67-7.92,7.07-15.16,14.68-22.34,22.5-1.48,1.62-2.98,3.22-4.49,4.83-6.52,7.01-12.39,14.43-18.21,22.02-1.11,1.44-2.23,2.88-3.34,4.32-5.74,7.44-11.4,14.89-16.66,22.68q-1-2-.04-4.96c.51-1.29,1.03-2.57,1.56-3.85q.42-1.06.85-2.13c.95-2.36,1.91-4.71,2.88-7.06.33-.82.67-1.63,1.01-2.47,13.61-33.3,29.04-65.81,44.63-98.22,1.06-2.22,2.13-4.43,3.19-6.65,9.11-18.97,18.46-37.83,27.86-56.66q.79-1.58,1.59-3.2c6.3-12.61,12.69-25.16,19.31-37.61,1.51-2.85,3.02-5.71,4.52-8.56,11.7-22.18,23.44-44.33,35.83-66.12,3.7-6.51,7.31-13.06,10.87-19.63,5.3-9.76,10.75-19.41,16.3-29.03,1.77-3.08,3.54-6.16,5.31-9.24,5.89-10.27,11.82-20.51,17.89-30.67.47-.78.93-1.56,1.41-2.36,2.21-3.67,4.48-7.27,6.87-10.82,3.52-5.24,6.77-10.63,10.02-16.03,6.41-10.65,12.92-21.24,19.53-31.77,3.29-5.22,6.54-10.47,9.75-15.74,6.23-10.23,12.42-20.39,19.52-30.03,2.61-3.56,5.11-7.17,7.59-10.81,5.92-8.65,11.93-17.24,17.95-25.82,2.94-4.18,5.87-8.37,8.8-12.56,1.17-1.67,2.33-3.33,3.5-5,.58-.83,1.15-1.65,1.75-2.5l5.25-7.5c.58-.83,1.16-1.65,1.75-2.5,1.17-1.67,2.33-3.33,3.5-5,2.93-4.18,5.86-8.38,8.79-12.57,6.27-9,12.61-17.96,19.06-26.84,2.69-3.71,5.36-7.44,7.96-11.21,8.56-12.31,17.88-24.1,27.04-35.95q8.43-10.75,16.06-22.07c1.85-2.56,4.09-4.64,6.34-6.86,1.75-1.98,3.48-3.97,5.19-6,.48-.57.95-1.13,1.45-1.72,3.6-4.31,7.05-8.72,10.45-13.19,3.9-5.12,7.95-10.1,12.02-15.08,3.53-4.31,6.98-8.67,10.39-13.07,4.42-5.68,9.06-11.13,13.8-16.54,3.9-4.46,7.67-8.99,11.39-13.59,3.23-3.93,6.55-7.77,9.86-11.61,3.09-3.59,6.11-7.21,9.07-10.89,3.86-4.74,7.91-9.27,12.05-13.76,1.95-2.13,3.84-4.29,5.71-6.49,3.53-4.08,7.37-7.84,11.22-11.64,2.74-2.72,5.39-5.47,7.9-8.42,2.99-3.52,6.22-6.76,9.5-10,3.24-3.2,6.43-6.39,9.38-9.88,3.89-4.58,8.22-8.74,12.49-12.97,3.69-3.66,7.2-7.4,10.56-11.36,2.41-2.74,5.03-5.26,7.63-7.81,1.77-1.81,3.39-3.66,5-5.6,4.08-4.76,8.71-8.92,13.31-13.16,3.6-3.32,7.13-6.67,10.57-10.16,3.21-3.26,6.56-6.27,10.03-9.25,3.07-2.74,5.92-5.69,8.8-8.61,2.68-2.64,5.48-5.08,8.33-7.52,1.88-1.66,3.64-3.39,5.4-5.18,2.9-2.95,5.94-5.65,9.07-8.35,3.2-2.83,6.31-5.74,9.43-8.65,4.3-4.01,8.62-7.98,13.08-11.83,2.33-2.03,4.63-4.1,6.92-6.17,2.98-2.69,5.97-5.36,9-8,4.72-4.11,9.36-8.31,14-12.5,9.92-8.96,19.99-17.72,30.15-26.42,2.18-1.87,3.76-3.22,5.41-4.63,15.41-13.16,19.06-15.99,34.06-28.68,4.14-3.5,8.13-6.87,16.13-13.62,6.41-5.41,11.12-9.37,17.8-14.17Z"/>
  </g>
</svg>